<svg width="457" height="340" viewBox="0 0 457 340" fill="none" xmlns="http://www.w3.org/2000/svg">
<g opacity="0.45">
<path d="M411 119C411 124.523 406.523 129 401 129C395.477 129 391 124.523 391 119C391 113.477 395.477 109 401 109C406.523 109 411 113.477 411 119Z" fill="#8684FF"/>
<g filter="url(#filter0_f_48_213)">
<circle cx="404" cy="118" r="10" fill="#8684FF"/>
</g>
<g filter="url(#filter1_f_48_213)">
<circle cx="214" cy="262" r="10" fill="#8684FF"/>
</g>
<g filter="url(#filter2_f_48_213)">
<circle cx="401" cy="262" r="10" fill="#8684FF"/>
</g>
<g filter="url(#filter3_f_48_213)">
<circle cx="29" cy="237" r="10" fill="#8684FF"/>
</g>
<g filter="url(#filter4_f_48_213)">
<circle cx="130" cy="90" r="10" fill="#8684FF"/>
</g>
<path d="M410 118.5H459.5" stroke="#8684FF" stroke-width="2"/>
</g>
<g opacity="0.45">
<circle cx="216" cy="262" r="10" fill="#8684FF"/>
<circle cx="403" cy="262" r="10" fill="#8684FF"/>
<path d="M215.5 259.5L238.5 243H268L285 259.5H304L309 243H375L404 259.5" stroke="#8684FF" stroke-width="2"/>
</g>
<g opacity="0.45">
<path d="M78 209V226.486" stroke="#7499FC"/>
<path d="M81 209V226.486" stroke="#7499FC"/>
<path d="M84 209V226.486" stroke="#7499FC"/>
<path d="M87 209V226.486" stroke="#7499FC"/>
<path d="M90 209V226.486" stroke="#7499FC"/>
<path d="M114 209V226.486" stroke="#7499FC"/>
<path d="M116 209V226.486" stroke="#7499FC"/>
<rect x="140" y="209.514" width="11" height="17.4857" fill="#7499FC"/>
</g>
<g opacity="0.45">
<path d="M310 214V231" stroke="#7499FC"/>
<path d="M312.354 214V231" stroke="#7499FC"/>
<path d="M314.709 214V231" stroke="#7499FC"/>
<path d="M317.063 214V231" stroke="#7499FC"/>
<path d="M319.418 214V231" stroke="#7499FC"/>
<path d="M338.253 214V231" stroke="#7499FC"/>
<path d="M339.823 214V231" stroke="#7499FC"/>
<path d="M342.962 214V231" stroke="#7499FC"/>
<path d="M372 214V231" stroke="#7499FC"/>
<path d="M368.076 214V231" stroke="#7499FC"/>
<path d="M352.38 214V231" stroke="#7499FC"/>
<rect x="357.873" y="214" width="8.63291" height="17" fill="#7499FC"/>
<rect x="324.911" y="214" width="4.70886" height="16.5278" fill="#7499FC"/>
</g>
<g opacity="0.45">
<rect x="312" y="29" width="5" height="15" fill="#7499FC"/>
<rect x="376" y="29" width="4" height="15" fill="#7499FC"/>
<rect x="404" y="29" width="34" height="15" fill="#7499FC"/>
<path d="M323 29V44" stroke="#7499FC"/>
<path d="M320 29V44" stroke="#7499FC"/>
<path d="M326 29V44" stroke="#7499FC"/>
<path d="M329 29V44" stroke="#7499FC"/>
<path d="M332 29V44" stroke="#7499FC"/>
<path d="M364 29V44" stroke="#7499FC"/>
<path d="M367 29V44" stroke="#7499FC"/>
<path d="M370 29V44" stroke="#7499FC"/>
<path d="M372 29V44" stroke="#7499FC"/>
<path d="M374 29V44" stroke="#7499FC"/>
<path d="M382 29V44" stroke="#7499FC"/>
<path d="M385 29V44" stroke="#7499FC"/>
<path d="M388 29V44" stroke="#7499FC"/>
<path d="M391 29V44" stroke="#7499FC"/>
</g>
<path opacity="0.45" d="M457 180H319L262 209.5H211.5L165.5 237H39" stroke="#45447D" stroke-width="2"/>
<path opacity="0.45" d="M457 90H310.579L277.873 62H217.997L183.278 90H139" stroke="#4C48FF" stroke-opacity="0.45" stroke-width="2"/>
<circle opacity="0.45" cx="29" cy="237" r="10" fill="#8684FF"/>
<circle opacity="0.45" cx="130" cy="90" r="10" fill="#8684FF"/>
<path opacity="0.45" d="M35 57C35 62.5228 30.5228 67 25 67C19.4772 67 15 62.5228 15 57C15 51.4772 19.4772 47 25 47C30.5228 47 35 51.4772 35 57Z" fill="#8684FF"/>
<g opacity="0.45" filter="url(#filter5_f_48_213)">
<path d="M35 57C35 62.5228 30.5228 67 25 67C19.4772 67 15 62.5228 15 57C15 51.4772 19.4772 47 25 47C30.5228 47 35 51.4772 35 57Z" fill="#8684FF"/>
</g>
<path d="M35 56.5H84L111.5 24H240.5L290.5 1H456" stroke="#8684FF" stroke-opacity="0.45" stroke-width="2"/>
<circle opacity="0.45" cx="53" cy="277" r="10" fill="#8684FF"/>
<g opacity="0.45" filter="url(#filter6_f_48_213)">
<circle cx="53" cy="277" r="10" fill="#8684FF"/>
</g>
<path d="M63 277H141.5L192 339H255.5L276.5 327H303L320 339H456" stroke="#8684FF" stroke-opacity="0.45" stroke-width="2"/>
<path d="M198 300V317" stroke="#7499FC" stroke-opacity="0.45"/>
<path d="M189 300V317" stroke="#7499FC" stroke-opacity="0.45"/>
<path d="M201 300V317" stroke="#7499FC" stroke-opacity="0.45"/>
<path d="M204 300V317" stroke="#7499FC" stroke-opacity="0.45"/>
<path d="M207 300V317" stroke="#7499FC" stroke-opacity="0.45"/>
<path d="M210 300V317" stroke="#7499FC" stroke-opacity="0.45"/>
<path d="M234 300V317" stroke="#7499FC" stroke-opacity="0.45"/>
<path d="M238 300V317" stroke="#7499FC" stroke-opacity="0.45"/>
<path d="M249 300V317" stroke="#7499FC" stroke-opacity="0.45"/>
<path d="M236 300V317" stroke="#7499FC" stroke-opacity="0.45"/>
<path d="M240 300V317" stroke="#7499FC" stroke-opacity="0.45"/>
<path d="M251 300V317" stroke="#7499FC" stroke-opacity="0.45"/>
<rect x="216" y="300" width="5" height="17" fill="#7499FC" fill-opacity="0.45"/>
<defs>
<filter id="filter0_f_48_213" x="379" y="93" width="50" height="50" filterUnits="userSpaceOnUse" color-interpolation-filters="sRGB">
<feFlood flood-opacity="0" result="BackgroundImageFix"/>
<feBlend mode="normal" in="SourceGraphic" in2="BackgroundImageFix" result="shape"/>
<feGaussianBlur stdDeviation="7.5" result="effect1_foregroundBlur_48_213"/>
</filter>
<filter id="filter1_f_48_213" x="189" y="237" width="50" height="50" filterUnits="userSpaceOnUse" color-interpolation-filters="sRGB">
<feFlood flood-opacity="0" result="BackgroundImageFix"/>
<feBlend mode="normal" in="SourceGraphic" in2="BackgroundImageFix" result="shape"/>
<feGaussianBlur stdDeviation="7.5" result="effect1_foregroundBlur_48_213"/>
</filter>
<filter id="filter2_f_48_213" x="376" y="237" width="50" height="50" filterUnits="userSpaceOnUse" color-interpolation-filters="sRGB">
<feFlood flood-opacity="0" result="BackgroundImageFix"/>
<feBlend mode="normal" in="SourceGraphic" in2="BackgroundImageFix" result="shape"/>
<feGaussianBlur stdDeviation="7.5" result="effect1_foregroundBlur_48_213"/>
</filter>
<filter id="filter3_f_48_213" x="4" y="212" width="50" height="50" filterUnits="userSpaceOnUse" color-interpolation-filters="sRGB">
<feFlood flood-opacity="0" result="BackgroundImageFix"/>
<feBlend mode="normal" in="SourceGraphic" in2="BackgroundImageFix" result="shape"/>
<feGaussianBlur stdDeviation="7.5" result="effect1_foregroundBlur_48_213"/>
</filter>
<filter id="filter4_f_48_213" x="105" y="65" width="50" height="50" filterUnits="userSpaceOnUse" color-interpolation-filters="sRGB">
<feFlood flood-opacity="0" result="BackgroundImageFix"/>
<feBlend mode="normal" in="SourceGraphic" in2="BackgroundImageFix" result="shape"/>
<feGaussianBlur stdDeviation="7.5" result="effect1_foregroundBlur_48_213"/>
</filter>
<filter id="filter5_f_48_213" x="0" y="32" width="50" height="50" filterUnits="userSpaceOnUse" color-interpolation-filters="sRGB">
<feFlood flood-opacity="0" result="BackgroundImageFix"/>
<feBlend mode="normal" in="SourceGraphic" in2="BackgroundImageFix" result="shape"/>
<feGaussianBlur stdDeviation="7.5" result="effect1_foregroundBlur_48_213"/>
</filter>
<filter id="filter6_f_48_213" x="28" y="252" width="50" height="50" filterUnits="userSpaceOnUse" color-interpolation-filters="sRGB">
<feFlood flood-opacity="0" result="BackgroundImageFix"/>
<feBlend mode="normal" in="SourceGraphic" in2="BackgroundImageFix" result="shape"/>
<feGaussianBlur stdDeviation="7.5" result="effect1_foregroundBlur_48_213"/>
</filter>
</defs>
</svg>
