<svg width="440" height="358" viewBox="0 0 440 358" fill="none" xmlns="http://www.w3.org/2000/svg">

<g opacity="0.45">
<ellipse cx="9.77427" cy="10" rx="9.77427" ry="10" transform="matrix(-1 0 0 1 60.4424 97)" fill="#8684FF"/>
<g filter="url(#filter0_f_48_135)">
<ellipse cx="9.77427" cy="10" rx="9.77427" ry="10" transform="matrix(-1 0 0 1 60.4424 97)" fill="#8684FF"/>
</g>
<g filter="url(#filter1_f_48_135)">
<ellipse cx="9.77427" cy="10" rx="9.77427" ry="10" transform="matrix(-1 0 0 1 227.327 254)" fill="#8684FF"/>
</g>
<g filter="url(#filter2_f_48_135)">
<ellipse cx="9.77427" cy="10" rx="9.77427" ry="10" transform="matrix(-1 0 0 1 44.5486 254)" fill="#8684FF"/>
</g>
<g filter="url(#filter3_f_48_135)">
<ellipse cx="9.77427" cy="10" rx="9.77427" ry="10" transform="matrix(-1 0 0 1 424.045 229)" fill="#8684FF"/>
</g>
<g filter="url(#filter4_f_48_135)">
<ellipse cx="9.77427" cy="10" rx="9.77427" ry="10" transform="matrix(-1 0 0 1 326.549 56)" fill="#8684FF"/>
</g>
<path d="M44.8037 107.5H-3.57891" stroke="#8684FF" stroke-width="2"/>
</g>
<g opacity="0.45">
<ellipse cx="9.77427" cy="10" rx="9.77427" ry="10" transform="matrix(-1 0 0 1 227.327 254)" fill="#8684FF"/>
<ellipse cx="9.77427" cy="10" rx="9.77427" ry="10" transform="matrix(-1 0 0 1 44.5486 254)" fill="#8684FF"/>
<path d="M218.042 261.5L201.914 245H155.5L147.5 259H96.5001L85.0001 245H49.0001L33.7971 261.5" stroke="#8684FF" stroke-width="2"/>
</g>
<g opacity="0.45">
<path d="M366.377 211V228.486" stroke="#7499FC"/>
<path d="M363.445 211V228.486" stroke="#7499FC"/>
<path d="M360.512 211V228.486" stroke="#7499FC"/>
<path d="M357.58 211V228.486" stroke="#7499FC"/>
<path d="M354.648 211V228.486" stroke="#7499FC"/>
<path d="M331.19 211V228.486" stroke="#7499FC"/>
<path d="M329.235 211V228.486" stroke="#7499FC"/>
<rect width="10.7517" height="17.4857" transform="matrix(-1 0 0 1 305.777 211.514)" fill="#7499FC"/>
</g>
<g opacity="0.45">
<path d="M116.217 215V232" stroke="#7499FC"/>
<path d="M113.285 215V232" stroke="#7499FC"/>
<path d="M110.352 215V232" stroke="#7499FC"/>
<path d="M107.42 215V232" stroke="#7499FC"/>
<path d="M104.488 215V232" stroke="#7499FC"/>
<path d="M81.0295 215V232" stroke="#7499FC"/>
<path d="M79.0747 215V232" stroke="#7499FC"/>
<path d="M75.165 215V232" stroke="#7499FC"/>
<path d="M39.0002 215V232" stroke="#7499FC"/>
<path d="M43.8872 215V232" stroke="#7499FC"/>
<path d="M63.4358 215V232" stroke="#7499FC"/>
<rect width="10.7517" height="17" transform="matrix(-1 0 0 1 56.5938 215)" fill="#7499FC"/>
<rect width="5.86456" height="16.5278" transform="matrix(-1 0 0 1 97.6458 215)" fill="#7499FC"/>
</g>
<g opacity="0.45">
<rect width="4.88713" height="15" transform="matrix(-1 0 0 1 137.659 0)" fill="#7499FC"/>
<rect width="3.90971" height="15" transform="matrix(-1 0 0 1 75.1038 0)" fill="#7499FC"/>
<rect width="33.2325" height="15" transform="matrix(-1 0 0 1 47.7358 0)" fill="#7499FC"/>
<path d="M126.907 0V15" stroke="#7499FC"/>
<path d="M129.84 0V15" stroke="#7499FC"/>
<path d="M123.975 0V15" stroke="#7499FC"/>
<path d="M121.043 0V15" stroke="#7499FC"/>
<path d="M118.111 0V15" stroke="#7499FC"/>
<path d="M86.833 0V15" stroke="#7499FC"/>
<path d="M83.9006 0V15" stroke="#7499FC"/>
<path d="M80.9685 0V15" stroke="#7499FC"/>
<path d="M79.0137 0V15" stroke="#7499FC"/>
<path d="M77.0586 0V15" stroke="#7499FC"/>
<path d="M69.2393 0V15" stroke="#7499FC"/>
<path d="M66.3069 0V15" stroke="#7499FC"/>
<path d="M63.3748 0V15" stroke="#7499FC"/>
<path d="M60.4424 0V15" stroke="#7499FC"/>
</g>
<path opacity="0.45" d="M-4 153H211.188L266.5 239H404.5" stroke="#45447D" stroke-width="2"/>
<path opacity="0.45" d="M-7.00005 38H113.374L180.699 66H306.754" stroke="#4C48FF" stroke-opacity="0.45" stroke-width="2"/>
<ellipse opacity="0.45" cx="9.77427" cy="10" rx="9.77427" ry="10" transform="matrix(-1 0 0 1 423.549 229)" fill="#8684FF"/>
<ellipse opacity="0.45" cx="9.77427" cy="10" rx="9.77427" ry="10" transform="matrix(-1 0 0 1 326.549 56)" fill="#8684FF"/>
<ellipse opacity="0.45" cx="9.77427" cy="10" rx="9.77427" ry="10" transform="matrix(-1 0 0 1 400.587 269)" fill="#8684FF"/>
<g opacity="0.45" filter="url(#filter5_f_48_135)">
<ellipse cx="9.77427" cy="10" rx="9.77427" ry="10" transform="matrix(-1 0 0 1 400.587 269)" fill="#8684FF"/>
</g>
<path d="M381.039 279H304.311L254.951 341H192.884L182.621 356.5H140.592L129.84 341H-3.09012" stroke="#8684FF" stroke-opacity="0.45" stroke-width="2"/>
<path d="M249.086 302V319" stroke="#7499FC" stroke-opacity="0.45"/>
<path d="M257.883 302V319" stroke="#7499FC" stroke-opacity="0.45"/>
<path d="M246.154 302V319" stroke="#7499FC" stroke-opacity="0.45"/>
<path d="M243.221 302V319" stroke="#7499FC" stroke-opacity="0.45"/>
<path d="M240.289 302V319" stroke="#7499FC" stroke-opacity="0.45"/>
<path d="M237.357 302V319" stroke="#7499FC" stroke-opacity="0.45"/>
<path d="M213.899 302V319" stroke="#7499FC" stroke-opacity="0.45"/>
<path d="M209.989 302V319" stroke="#7499FC" stroke-opacity="0.45"/>
<path d="M199.237 302V319" stroke="#7499FC" stroke-opacity="0.45"/>
<path d="M211.944 302V319" stroke="#7499FC" stroke-opacity="0.45"/>
<path d="M208.034 302V319" stroke="#7499FC" stroke-opacity="0.45"/>
<path d="M197.282 302V319" stroke="#7499FC" stroke-opacity="0.45"/>
<rect width="4.88713" height="17" transform="matrix(-1 0 0 1 231.492 302)" fill="#7499FC" fill-opacity="0.45"/>
<defs>
<filter id="filter0_f_48_135" x="25.8938" y="82" width="49.5486" height="50" filterUnits="userSpaceOnUse" color-interpolation-filters="sRGB">
<feFlood flood-opacity="0" result="BackgroundImageFix"/>
<feBlend mode="normal" in="SourceGraphic" in2="BackgroundImageFix" result="shape"/>
<feGaussianBlur stdDeviation="7.5" result="effect1_foregroundBlur_48_135"/>
</filter>
<filter id="filter1_f_48_135" x="192.779" y="239" width="49.5486" height="50" filterUnits="userSpaceOnUse" color-interpolation-filters="sRGB">
<feFlood flood-opacity="0" result="BackgroundImageFix"/>
<feBlend mode="normal" in="SourceGraphic" in2="BackgroundImageFix" result="shape"/>
<feGaussianBlur stdDeviation="7.5" result="effect1_foregroundBlur_48_135"/>
</filter>
<filter id="filter2_f_48_135" x="10" y="239" width="49.5486" height="50" filterUnits="userSpaceOnUse" color-interpolation-filters="sRGB">
<feFlood flood-opacity="0" result="BackgroundImageFix"/>
<feBlend mode="normal" in="SourceGraphic" in2="BackgroundImageFix" result="shape"/>
<feGaussianBlur stdDeviation="7.5" result="effect1_foregroundBlur_48_135"/>
</filter>
<filter id="filter3_f_48_135" x="389.497" y="214" width="49.5486" height="50" filterUnits="userSpaceOnUse" color-interpolation-filters="sRGB">
<feFlood flood-opacity="0" result="BackgroundImageFix"/>
<feBlend mode="normal" in="SourceGraphic" in2="BackgroundImageFix" result="shape"/>
<feGaussianBlur stdDeviation="7.5" result="effect1_foregroundBlur_48_135"/>
</filter>
<filter id="filter4_f_48_135" x="292" y="41" width="49.5486" height="50" filterUnits="userSpaceOnUse" color-interpolation-filters="sRGB">
<feFlood flood-opacity="0" result="BackgroundImageFix"/>
<feBlend mode="normal" in="SourceGraphic" in2="BackgroundImageFix" result="shape"/>
<feGaussianBlur stdDeviation="7.5" result="effect1_foregroundBlur_48_135"/>
</filter>
<filter id="filter5_f_48_135" x="366.038" y="254" width="49.5486" height="50" filterUnits="userSpaceOnUse" color-interpolation-filters="sRGB">
<feFlood flood-opacity="0" result="BackgroundImageFix"/>
<feBlend mode="normal" in="SourceGraphic" in2="BackgroundImageFix" result="shape"/>
<feGaussianBlur stdDeviation="7.5" result="effect1_foregroundBlur_48_135"/>
</filter>
</defs>
</svg>
