<svg width="25" height="25" viewBox="0 0 25 25" fill="none" xmlns="http://www.w3.org/2000/svg">
<g id="icon-park-outline:telegram">
<path id="Vector" d="M21.5729 3.8067C21.5729 3.8067 23.5963 3.01764 23.427 4.93378C23.3713 5.72284 22.8656 8.48482 22.4718 11.4718L21.1229 20.3208C21.1229 20.3208 21.0104 21.6171 19.9984 21.8426C18.9869 22.0676 17.4692 21.0536 17.188 20.8281C16.963 20.6588 12.9723 18.1223 11.5671 16.8827C11.1734 16.5442 10.7234 15.8682 11.6234 15.0791L17.5249 9.44264C18.1994 8.76659 18.8739 7.18847 16.0635 9.10462L8.19369 14.4588C8.19369 14.4588 7.29421 15.0228 5.60827 14.5156L1.95411 13.3879C1.95411 13.3879 0.60515 12.5426 2.90984 11.6973C8.53119 9.04836 15.4453 6.34316 21.5718 3.8067H21.5729Z" fill="#8684FF"/>
</g>
</svg>
